<svg width="90" height="90" xmlns="http://www.w3.org/2000/svg">

 <g>
  <title>background</title>
  <rect fill="none" id="canvas_background" height="92" width="92" y="-1" x="-1"/>
 </g>
 <g>
  <title>Layer 1</title>
  <path stroke="null" id="svg_1" d="m84.532538,3.904763l-79.065075,0c-1.859276,0 -3.372229,1.473737 -3.372229,3.284091l0,44.676613c0,1.810354 1.512953,3.284091 3.372229,3.284091l79.065075,0c1.859276,0 3.372229,-1.473737 3.372229,-3.284091l0,-44.676613c0,-1.810356 -1.512953,-3.284091 -3.372229,-3.284091zm-52.229955,36.652513c0.909343,1.055032 0.76728,2.626763 -0.314244,3.510623c-1.080213,0.883225 -2.696605,0.747687 -3.603985,-0.306073l-10.887896,-12.633028c-0.800013,-0.92522 -0.800013,-2.277418 0,-3.20264l10.887896,-12.633664c0.907381,-1.053123 2.521153,-1.191207 3.603985,-0.305438c1.081524,0.883225 1.223587,2.456864 0.314244,3.509988l-9.506533,11.030114l9.506533,11.030116zm20.214393,-22.744921l-10.277084,25.265418c-0.525704,1.287929 -2.018363,1.903257 -3.321166,1.398649c-1.314587,-0.506517 -1.958132,-1.955436 -1.435701,-3.234456l10.277084,-25.265418c0.519811,-1.27902 2.007232,-1.905167 3.321166,-1.39865c1.314587,0.507153 1.958132,1.955438 1.435701,3.234457zm19.986567,13.316443l-10.887896,12.633028c-0.906725,1.053123 -2.523117,1.189933 -3.603985,0.306073c-1.081524,-0.88386 -1.223587,-2.455591 -0.314244,-3.510623l9.506533,-11.030116l-9.506533,-11.030114c-0.909343,-1.053124 -0.76728,-2.626763 0.314244,-3.509988c1.082833,-0.885769 2.696605,-0.747685 3.603985,0.305438l10.887896,12.633664c0.800013,0.925222 0.800013,2.277419 0,3.20264zm0,0"/>
  <path stroke="null" id="svg_4" d="m65.272548,80.516356l-11.079298,0l-1.073575,-20.362893l-16.239347,0l-1.073562,20.362893l-11.07931,0c-1.619733,0 -2.932625,1.448865 -2.932625,3.236519c0,1.787693 1.312892,3.236519 2.932625,3.236519l40.545091,0c1.619733,0 2.932625,-1.448825 2.932625,-3.236519c0,-1.787654 -1.312892,-3.236519 -2.932625,-3.236519zm0,0"/>
 </g>
</svg>